# xmcd CD database file
#
# Track frame offsets:
#	150
#	15177
#	27770
#	41697
#	60762
#	75312
#	88372
#	101457
#	119840
#	135082
#	147077
#	160309
#	174032
#	187590
#	201067
#	215842
#	229327
#	240477
#
# Disc length: 3374 seconds
#
# Revision: 0
# Processed by: cddbd v1.5.1PL0 Copyright (c) Steve Scherf et al.
# Submitted via: CDex 1.51
#
DISCID=d80d2c12
DTITLE=Miles Davis - Miles and Friends Disk 2
DYEAR=1900
DGENRE=Jazz
TTITLE0=MOON DREAMS
TTITLE1=DECEPTION
TTITLE2=STEEPLE CHASE
TTITLE3=VICTORY BALL
TTITLE4=MY OLD FLAME
TTITLE5=DRIFTING ON A REED
TTITLE6=BLUEBIRD
TTITLE7=OUT OF NOWHERE
TTITLE8=HOW DEEP IS THE OCEAN
TTITLE9=ANOTHER HAIR DO
TTITLE10=QUASIMADO
TTITLE11=BOPLICITY
TTITLE12=SCRAPPLE FROM THE APPLE
TTITLE13=DEXTERITY
TTITLE14=NOW´S THE TIME
TTITLE15=ORNITHOLOGY
TTITLE16=THE HYMN
TTITLE17=DON´T BLAME ME
EXTD=
EXTT0=
EXTT1=
EXTT2=
EXTT3=
EXTT4=
EXTT5=
EXTT6=
EXTT7=
EXTT8=
EXTT9=
EXTT10=
EXTT11=
EXTT12=
EXTT13=
EXTT14=
EXTT15=
EXTT16=
EXTT17=
PLAYORDER=
